<svg xmlns="http://www.w3.org/2000/svg" viewBox="0 0 96 68" width="96" height="68">
  <mask id="accordion-cut">
    <rect width="96" height="68" fill="white"></rect>
    <rect x="22" y="9" width="52" height="7" rx="1.5" fill="black"></rect>
    <rect x="22" y="20" width="52" height="18" rx="2" fill="black"></rect>
    <rect x="22" y="42" width="52" height="7" rx="1.5" fill="black"></rect>
  </mask>
  <g mask="url(#accordion-cut)">
    <rect x="18" y="5" width="60" height="48" rx="3" fill="#ffffff"></rect>
  </g>
  <rect x="22" y="9" width="52" height="7" rx="1.5" fill="#374151"></rect>
  <rect x="26" y="11.5" width="16" height="2" rx="1" fill="#ffffff"></rect>
  <path d="M 66 11.5 L 68 13.5 L 70 11.5" stroke="#ffffff" stroke-width="1" stroke-linecap="round" stroke-linejoin="round" fill="none"></path>
  <rect x="22" y="20" width="52" height="18" rx="2" fill="#374151"></rect>
  <rect x="26" y="22.5" width="16" height="2" rx="1" fill="#ffffff"></rect>
  <path d="M 66 24.5 L 68 22.5 L 70 24.5" stroke="#ffffff" stroke-width="1" stroke-linecap="round" stroke-linejoin="round" fill="none"></path>
  <rect x="26" y="29" width="40" height="1.5" rx="0.75" fill="#ffffff"></rect>
  <rect x="26" y="33" width="32" height="1.5" rx="0.75" fill="#ffffff"></rect>
  <rect x="22" y="42" width="52" height="7" rx="1.5" fill="#374151"></rect>
  <rect x="26" y="44.5" width="16" height="2" rx="1" fill="#ffffff"></rect>
  <path d="M 66 44.5 L 68 46.5 L 70 44.5" stroke="#ffffff" stroke-width="1" stroke-linecap="round" stroke-linejoin="round" fill="none"></path>
</svg>