<svg xmlns="http://www.w3.org/2000/svg" viewBox="0 0 96 68" width="96" height="68">
  <rect x="18" y="5" width="60" height="44" rx="3" fill="#ffffff"></rect>
  <circle cx="68" cy="11" r="3" fill="none" stroke="#374151" stroke-width="1.5"></circle>
  <path d="M 70.2 13.2 L 73 16" stroke="#374151" stroke-width="1.5" stroke-linecap="round"></path>
  <rect x="22" y="11" width="36" height="2" rx="1" fill="#374151"></rect>
  <rect x="22" y="17" width="44" height="2" rx="1" fill="#374151"></rect>
  <rect x="22" y="23" width="8" height="2" rx="1" fill="#374151"></rect>
  <rect x="32" y="22" width="14" height="4" rx="1" fill="#374151"></rect>
  <rect x="34" y="23" width="10" height="2" rx="1" fill="#ffffff"></rect>
  <rect x="48" y="23" width="12" height="2" rx="1" fill="#374151"></rect>
  <rect x="22" y="29" width="14" height="2" rx="1" fill="#374151"></rect>
  <rect x="38" y="28" width="26" height="4" rx="1" fill="#374151"></rect>
  <rect x="40" y="29" width="22" height="2" rx="1" fill="#ffffff"></rect>
  <rect x="22" y="34" width="22" height="4" rx="1" fill="#374151"></rect>
  <rect x="24" y="35" width="18" height="2" rx="1" fill="#ffffff"></rect>
  <rect x="46" y="35" width="14" height="2" rx="1" fill="#374151"></rect>
  <rect x="22" y="41" width="36" height="2" rx="1" fill="#374151"></rect>
</svg>