<svg xmlns="http://www.w3.org/2000/svg" viewBox="0 0 96 68" width="96" height="68">
  <rect x="18" y="5" width="60" height="48" rx="3" fill="#ffffff"></rect>
  <rect x="22" y="12" width="52" height="10" rx="2" fill="#374151"></rect>
  <rect x="26" y="16" width="22" height="2" rx="1" fill="#ffffff"></rect>
  <rect x="60" y="14" width="10" height="6" rx="3" fill="#ffffff"></rect>
  <circle cx="67" cy="17" r="1.75" fill="#374151"></circle>
  <rect x="22" y="24" width="52" height="10" rx="2" fill="#374151"></rect>
  <rect x="26" y="28" width="26" height="2" rx="1" fill="#ffffff"></rect>
  <rect x="60" y="26" width="10" height="6" rx="3" fill="#ffffff"></rect>
  <circle cx="63" cy="29" r="1.75" fill="#374151"></circle>
  <rect x="22" y="36" width="52" height="10" rx="2" fill="#374151"></rect>
  <rect x="26" y="40" width="18" height="2" rx="1" fill="#ffffff"></rect>
  <rect x="60" y="38" width="10" height="6" rx="3" fill="#ffffff"></rect>
  <circle cx="67" cy="41" r="1.75" fill="#374151"></circle>
</svg>